# xmcd
#
# Track frame offsets: 
#        150
#        16272
#        32060
#        47112
#        62053
#        78066
#        94159
#        110380
#        123664
#        139621
#        154493
#        168566
#        184651
#        198573
#        213858
#        228505
#        243201
#        257732
#        276994
#        296753
#        313433
#        331482
#
# Disc length: 4609 seconds
#
# Revision: 1
# Processed by: cddbd v1.5.2PL0 Copyright (c) Steve Scherf et al.
# Submitted via: ExactAudioCopy v1.0b1
#
DISCID=4711ff16
DTITLE=Various Artist - Dream Dance Vol.60 [CD1)
DYEAR=2011
DGENRE=Dance
TTITLE0=Dream Dance Alliance (D.D. Alliance)  - Moving On (Edit)
TTITLE1=Groove Coverage - Angeline
TTITLE2=Starsplash - Computerliebe
TTITLE3=R.I.O. - Miss Sunshine
TTITLE4=Scooter - The Only One
TTITLE5=Paffendorf - Be Cool (DJs From Mars Radio Edit)
TTITLE6=Within Temptation - Sinead (Groove Coverage Radio Edit)
TTITLE7=Cascada - San Francisco (Frisco Radio Edit)
TTITLE8=DJ Klubbingman Feat. Beatrix Delgado - Are You Ready
TTITLE9=Brooklyn Bounce - Cold Rock A Party (Booty Boy Remix Edit)
TTITLE10=Topmodelz - My Paradise (Classic Edit)
TTITLE11=Money G - Du Bist Nicht Du (Empyre One Bootleg Edit)
TTITLE12=Darius and Finlay Feat. Tibration - She's A Freak (Video Mix)
TTITLE13=G&G - Beautiful Day
TTITLE14=Alexandra Stan - Mr. Saxobeat
TTITLE15=DJ Antoine Vs. Timati Feat. Kalenna - Welcome To St. Tropez (
TTITLE15=DJ Antonie Vs. Mad Mark Radio Edit)
TTITLE16=Micheal Mind Project Feat. Sean Kingston - Ready Or Not (Sing
TTITLE16=le Edit)
TTITLE17=Wand 21 - Sweat (David May Remix Edit)
TTITLE18=LMAA - Party Rock Anthem (LIMAA Original Mix)
TTITLE19=Other Ego - On The Floor (David May Remix Edit)
TTITLE20=Chris Brown - Yeah 3x
TTITLE21=Laserkraft 3D - Weightless (Tocadisco Remix Edit)
EXTD=
EXTT0=
EXTT1=
EXTT2=
EXTT3=
EXTT4=
EXTT5=
EXTT6=
EXTT7=
EXTT8=
EXTT9=
EXTT10=
EXTT11=
EXTT12=
EXTT13=
EXTT14=
EXTT15=
EXTT16=
EXTT17=
EXTT18=
EXTT19=
EXTT20=
EXTT21=
PLAYORDER=
